<svg width="16" height="16" viewBox="0 0 16 16" fill="none" xmlns="http://www.w3.org/2000/svg">
<path d="M13.5 3C13.2 3 13 3.2 13 3.5V7C13 8.4 11.9 9.5 10.5 9.5H3.69995L5.34995 7.85C5.54995 7.65 5.54995 7.35 5.34995 7.15C5.14995 6.95 4.84995 6.95 4.64995 7.15L2.14995 9.65C2.09995 9.7 2.04995 9.75 2.04995 9.8C1.99995 9.9 1.99995 10.05 2.04995 10.2C2.09995 10.25 2.09995 10.3 2.14995 10.35L4.64995 12.85C4.74995 12.95 4.84995 13 4.99995 13C5.14995 13 5.24995 12.95 5.34995 12.85C5.54995 12.65 5.54995 12.35 5.34995 12.15L3.69995 10.5H10.5C12.45 10.5 14 8.95 14 7V3.5C14 3.2 13.8 3 13.5 3Z" fill="#868C92"/>
</svg>
