<?xml version="1.0" encoding="UTF-8" standalone="no"?>
<svg width="928px" height="150px" viewBox="0 0 928 150" version="1.1" xmlns="http://www.w3.org/2000/svg" xmlns:xlink="http://www.w3.org/1999/xlink" xmlns:sketch="http://www.bohemiancoding.com/sketch/ns">
    <!-- Generator: Sketch 3.2.2 (9983) - http://www.bohemiancoding.com/sketch -->
    <title>Logo - Normal</title>
    <desc>Created with Sketch.</desc>
    <defs></defs>
    <g id="Page-1" stroke="none" stroke-width="1" fill="none" fill-rule="evenodd" sketch:type="MSPage">
        <g id="Logo---Normal" sketch:type="MSLayerGroup" transform="translate(-337.000000, -625.000000)" fill="#2C97E8">
            <path d="M365.714,628.085 L336.797,628.085 L336.797,767 L424.871,767 L424.871,741.674 L365.714,741.674 L365.714,628.085 L365.714,628.085 Z M479.492,669.287 C450.953,669.287 431.297,690.644 431.297,719.372 C431.297,748.1 450.575,768.89 480.626,768.89 C498.581,768.89 511.244,763.22 521.261,751.691 L502.172,736.193 C498.014,741.863 490.643,746.021 481.193,746.021 C467.396,746.021 459.836,739.028 459.269,726.743 L524.096,726.743 L524.096,717.86 C524.096,691.589 509.543,669.287 479.492,669.287 L479.492,669.287 L479.492,669.287 Z M478.547,690.266 C489.887,690.266 496.313,698.393 496.691,709.166 L459.269,709.166 C459.836,698.204 467.207,690.266 478.547,690.266 L478.547,690.266 L478.547,690.266 Z M577.772,669.287 C552.257,669.287 535.058,690.455 535.058,719.183 C535.058,747.911 552.257,768.89 577.772,768.89 C591.569,768.89 600.83,763.22 605.744,756.416 L607.256,767 L632.204,767 L632.204,671.177 L607.256,671.177 L605.744,681.95 C600.83,674.957 591.569,669.287 577.772,669.287 L577.772,669.287 L577.772,669.287 Z M584.576,693.479 C594.215,693.479 600.074,698.771 604.232,705.575 L604.232,732.791 C600.074,739.595 594.215,744.698 584.576,744.698 C571.913,744.698 563.03,734.87 563.03,719.183 C563.03,703.307 571.913,693.479 584.576,693.479 L584.576,693.479 L584.576,693.479 Z M711.017,669.287 C697.787,669.287 688.526,674.768 683.801,681.761 L682.478,671.177 L657.53,671.177 L657.53,767 L685.313,767 L685.313,706.709 C688.904,700.85 694.763,695.369 703.457,695.369 C713.285,695.369 719.144,702.74 719.144,713.324 L719.144,767 L746.927,767 L746.927,711.812 C746.927,685.919 734.264,669.287 711.017,669.287 L711.017,669.287 L711.017,669.287 Z M834.434,625.628 C792.665,625.628 763.181,656.435 763.181,697.448 C763.181,738.65 792.665,769.457 834.434,769.457 C854.657,769.457 871.1,763.409 884.897,748.289 L866.942,727.31 C859.571,736.193 848.798,743.186 834.434,743.186 C808.919,743.186 792.287,723.908 792.287,697.448 C792.287,670.988 808.919,651.899 834.434,651.899 C848.609,651.899 859.193,658.703 866.564,667.397 L884.708,646.418 C871.289,632.621 856.358,625.628 834.434,625.628 L834.434,625.628 L834.434,625.628 Z M926.855,623.36 L899.072,623.36 L899.072,767 L926.855,767 L926.855,623.36 L926.855,623.36 Z M995.084,669.287 C965.978,669.287 944.81,690.644 944.81,719.372 C944.81,748.1 965.978,768.89 995.084,768.89 C1024.19,768.89 1045.736,748.1 1045.736,719.372 C1045.736,690.644 1024.19,669.287 995.084,669.287 L995.084,669.287 L995.084,669.287 Z M995.084,693.479 C1008.125,693.479 1017.575,704.63 1017.575,719.372 C1017.575,733.925 1008.125,744.698 995.084,744.698 C982.232,744.698 972.782,733.925 972.782,719.372 C972.782,704.63 982.232,693.479 995.084,693.479 L995.084,693.479 L995.084,693.479 Z M1150.064,671.177 L1122.281,671.177 L1122.281,731.468 C1118.501,737.327 1113.02,742.808 1103.948,742.808 C1094.498,742.808 1089.206,735.626 1089.206,725.231 L1089.206,671.177 L1061.423,671.177 L1061.423,726.743 C1061.423,752.447 1073.33,768.89 1096.01,768.89 C1109.807,768.89 1118.69,763.598 1123.793,756.605 L1125.116,767 L1150.064,767 L1150.064,671.177 L1150.064,671.177 Z M1264.976,623.36 L1237.004,623.36 L1237.004,679.871 C1232.468,674.579 1224.152,669.287 1210.544,669.287 C1185.029,669.287 1167.83,690.455 1167.83,719.183 C1167.83,747.911 1185.029,768.89 1210.544,768.89 C1224.341,768.89 1233.602,763.22 1238.516,756.416 L1240.028,767 L1264.976,767 L1264.976,623.36 L1264.976,623.36 Z M1217.348,693.479 C1226.987,693.479 1232.846,698.771 1237.004,705.575 L1237.004,732.791 C1232.846,739.595 1226.987,744.698 1217.348,744.698 C1204.685,744.698 1195.802,734.87 1195.802,719.183 C1195.802,703.307 1204.685,693.479 1217.348,693.479 L1217.348,693.479 L1217.348,693.479 Z" id="LeanCloud" sketch:type="MSShapeGroup"></path>
        </g>
    </g>
</svg>