<svg width="14" height="14" viewBox="0 0 14 14" fill="none" xmlns="http://www.w3.org/2000/svg">
<path d="M1.16666 5.73506C1.16666 3.212 3.212 1.16666 5.73505 1.16666C8.25811 1.16666 10.3034 3.212 10.3034 5.73506C10.3034 6.80292 9.93706 7.78521 9.32314 8.56307L12.8333 12.0732L12.0732 12.8333L8.56306 9.32315C7.7852 9.93707 6.80291 10.3035 5.73505 10.3035C3.212 10.3035 1.16666 8.25812 1.16666 5.73506ZM5.73505 2.24158C3.80566 2.24158 2.24157 3.80566 2.24157 5.73506C2.24157 7.66446 3.80566 9.22854 5.73505 9.22854C7.66445 9.22854 9.22853 7.66446 9.22853 5.73506C9.22853 3.80566 7.66445 2.24158 5.73505 2.24158Z" fill="#B9BEC1"/>
</svg>
