<svg xmlns="http://www.w3.org/2000/svg" xmlns:xlink="http://www.w3.org/1999/xlink" xmlns:lucid="lucid" width="2400" height="560"><g transform="translate(0 0)" lucid:page-tab-id="0_0"><path d="M1040 30h320v80h-320z" stroke="#000" stroke-width="4" fill="#fff"/><use xlink:href="#a" transform="matrix(1,0,0,1,1048,38) translate(86.6560329861111 41.32725694444444)"/><path d="M1040 250h320v80h-320z" stroke="#000" stroke-width="4" fill="#fff"/><use xlink:href="#b" transform="matrix(1,0,0,1,1048,258) translate(39.981770833333314 41.32725694444444)"/><path d="M840 450h320v80H840z" stroke="#000" stroke-width="4" fill="#fff"/><use xlink:href="#c" transform="matrix(1,0,0,1,848,458) translate(39.981770833333314 41.32725694444444)"/><path d="M1240 450h320v80h-320z" stroke="#000" stroke-width="4" fill="#fff"/><use xlink:href="#d" transform="matrix(1,0,0,1,1247.9999999999998,458) translate(39.981770833333314 41.32725694444444)"/><path d="M40 450h320v80H40z" stroke="#000" stroke-width="4" fill="#fff"/><use xlink:href="#e" transform="matrix(1,0,0,1,48,458) translate(49.31662326388887 41.32725694444444)"/><path d="M440 450h320v80H440z" stroke="#000" stroke-width="4" fill="#fff"/><use xlink:href="#f" transform="matrix(1,0,0,1,448,458) translate(39.981770833333314 41.32725694444444)"/><path d="M1640 450h320v80h-320z" stroke="#000" stroke-width="4" fill="#fff"/><use xlink:href="#g" transform="matrix(1,0,0,1,1648,458) translate(11.977213541666629 41.32725694444444)"/><path d="M2040 450h320v80h-320z" stroke="#000" stroke-width="4" fill="#fff"/><use xlink:href="#h" transform="matrix(1,0,0,1,2048,458) translate(136.44444444444446 41.32725694444444)"/><path d="M1200 246V139.45" stroke="#000" stroke-width="4" fill="none"/><path d="M1202 248h-4v-2.05h4z"/><path d="M1200 115.93l12.73 21.52h-25.46z" stroke="#000" stroke-width="4" fill="#fff"/><path d="M200 446v-56h1000v-30.55" stroke="#000" stroke-width="4" fill="none"/><path d="M202 448h-4v-2.05h4z"/><path d="M1200 335.93l12.73 21.52h-25.46z" stroke="#000" stroke-width="4" fill="#fff"/><path d="M600 446v-56h600v-30.55" stroke="#000" stroke-width="4" fill="none"/><path d="M602 448h-4v-2.05h4z"/><path d="M1200 335.93l12.73 21.52h-25.46z" stroke="#000" stroke-width="4" fill="#fff"/><path d="M1000 446v-56h200v-30.55" stroke="#000" stroke-width="4" fill="none"/><path d="M1002 448h-4v-2.05h4z"/><path d="M1200 335.93l12.73 21.52h-25.46z" stroke="#000" stroke-width="4" fill="#fff"/><path d="M1400 446v-56h-200v-30.55" stroke="#000" stroke-width="4" fill="none"/><path d="M1402 448h-4v-2.05h4z"/><path d="M1200 335.93l12.73 21.52h-25.46z" stroke="#000" stroke-width="4" fill="#fff"/><path d="M1800 446v-56h-600v-30.55" stroke="#000" stroke-width="4" fill="none"/><path d="M1802 448h-4v-2.05h4z"/><path d="M1200 335.93l12.73 21.52h-25.46z" stroke="#000" stroke-width="4" fill="#fff"/><path d="M2200 446v-56H1200v-30.55" stroke="#000" stroke-width="4" fill="none"/><path d="M2202 448h-4v-2.05h4z"/><path d="M1200 335.93l12.73 21.52h-25.46z" stroke="#000" stroke-width="4" fill="#fff"/><defs><path d="M285-1169c8 382 2 780 4 1169H129v-1349h237c86 239 188 461 253 720 69-258 169-481 255-720h225V0H937c2-390-5-788 6-1169-75 255-170 488-259 729H547c-90-240-185-475-262-729" id="i"/><path d="M617-1102c355 0 481 238 477 599H322c5 222 84 388 301 388 144 0 244-59 284-166l158 45C1002-72 854 20 623 20c-342 0-490-220-490-568 0-346 151-554 484-554zm291 461c-18-192-90-328-289-328-194 0-287 128-295 328h584" id="j"/><path d="M873-819c-18-114-119-146-250-146-163 0-245 50-245 151 0 151 170 148 294 185 182 54 388 94 388 320 0 240-189 325-439 329-245 4-410-69-454-268l159-31c24 133 136 168 295 165 144-2 270-31 270-171 0-164-195-160-331-202-167-52-350-87-350-299 0-218 173-315 413-313 220 2 373 77 412 260" id="k"/><path d="M1000-272c3 95 12 159 101 161 21 0 41-3 59-7V-6c-44 10-86 16-139 16-141 2-191-84-197-217h-6C748-76 648 20 446 20c-207 0-318-120-318-322 0-266 194-348 454-354l236-4c12-191-40-305-222-305-140 0-220 47-232 172l-188-17c33-204 181-292 423-292 255 0 401 118 401 364v466zm-683-27c0 109 63 184 175 182 166-3 259-96 306-217 24-65 20-120 20-200-232 7-501-28-501 235" id="l"/><path d="M1048-32c-2 300-135 456-433 456-222-1-358-88-400-267l184-25c22 99 100 157 222 156 184-2 248-125 248-315 0-64 3-133-2-194C807-100 706-13 524-12c-306 0-381-228-381-537 0-318 85-550 400-550 164 0 271 83 325 202h3c1-60 3-134 12-185h171c-13 339-4 702-6 1050zM585-145c210-8 284-178 284-406 0-192-52-331-177-392-33-16-69-22-104-22-223 2-259 184-259 414 0 229 31 415 256 406" id="m"/><g id="a"><use transform="matrix(0.015190972222222224,0,0,0.015190972222222224,0,0)" xlink:href="#i"/><use transform="matrix(0.015190972222222224,0,0,0.015190972222222224,18.669704861111114,0)" xlink:href="#j"/><use transform="matrix(0.015190972222222224,0,0,0.015190972222222224,37.33940972222223,0)" xlink:href="#k"/><use transform="matrix(0.015190972222222224,0,0,0.015190972222222224,56.00911458333334,0)" xlink:href="#k"/><use transform="matrix(0.015190972222222224,0,0,0.015190972222222224,74.67881944444446,0)" xlink:href="#l"/><use transform="matrix(0.015190972222222224,0,0,0.015190972222222224,93.34852430555557,0)" xlink:href="#m"/><use transform="matrix(0.015190972222222224,0,0,0.015190972222222224,112.01822916666669,0)" xlink:href="#j"/></g><path d="M709-1193V0H519v-1193H76v-156h1076v156H709" id="n"/><path d="M168 279c222 39 310-114 368-290L66-1082h192c120 299 249 590 362 896 115-301 235-597 351-896h190L705 0c-65 164-130 320-275 396-67 36-177 35-262 18V279" id="o"/><path d="M698-1104c312 3 392 244 392 558 0 315-82 566-392 566-169 0-277-65-331-184h-5c8 188 2 394 4 589H185V-858c0-76-1-156-6-224h175c6 52 9 120 10 178h4c58-122 150-202 330-200zm-49 991c225 0 255-203 255-433 0-225-32-419-253-419-236 0-285 192-285 441 0 237 53 411 283 411" id="p"/><path d="M865-914c-3-187-2-380-2-570h180v1261c0 76 1 155 6 223H877c-8-49-9-116-10-174h-5C801-44 708 26 530 26c-135 0-234-46-297-139s-95-232-95-419c0-377 131-566 392-566 176 0 271 63 335 184zm-286-51c-222 0-255 197-255 427 0 229 31 425 253 425 237 0 286-195 286-441 0-238-52-411-284-411" id="q"/><g id="b"><use transform="matrix(0.015190972222222224,0,0,0.015190972222222224,0,0)" xlink:href="#n"/><use transform="matrix(0.015190972222222224,0,0,0.015190972222222224,18.669704861111114,0)" xlink:href="#o"/><use transform="matrix(0.015190972222222224,0,0,0.015190972222222224,37.33940972222223,0)" xlink:href="#p"/><use transform="matrix(0.015190972222222224,0,0,0.015190972222222224,56.00911458333334,0)" xlink:href="#j"/><use transform="matrix(0.015190972222222224,0,0,0.015190972222222224,74.67881944444446,0)" xlink:href="#q"/><use transform="matrix(0.015190972222222224,0,0,0.015190972222222224,93.34852430555557,0)" xlink:href="#i"/><use transform="matrix(0.015190972222222224,0,0,0.015190972222222224,112.01822916666669,0)" xlink:href="#j"/><use transform="matrix(0.015190972222222224,0,0,0.015190972222222224,130.6879340277778,0)" xlink:href="#k"/><use transform="matrix(0.015190972222222224,0,0,0.015190972222222224,149.3576388888889,0)" xlink:href="#k"/><use transform="matrix(0.015190972222222224,0,0,0.015190972222222224,168.02734375000003,0)" xlink:href="#l"/><use transform="matrix(0.015190972222222224,0,0,0.015190972222222224,186.69704861111114,0)" xlink:href="#m"/><use transform="matrix(0.015190972222222224,0,0,0.015190972222222224,205.36675347222226,0)" xlink:href="#j"/></g><path d="M1034 0L896-382H333L196 0H0l510-1349h217L1228 0h-194zM847-531c-77-225-157-447-231-674-69 231-154 451-232 674h463" id="r"/><path d="M528 20c-247 0-343-132-343-381v-721h180v686c-4 177 45 284 224 277 194-8 279-136 279-336v-627h181c3 360-6 732 6 1082H885c-4-54-7-126-8-185h-3C809-64 714 20 528 20" id="s"/><path d="M745-142h380V0H143v-142h422v-798H246v-142h499v940zM545-1292v-192h200v192H545" id="t"/><path d="M615-1102c343 0 484 203 482 560-1 347-147 562-488 562-336 0-475-219-479-562-4-349 156-560 485-560zm-8 989c240 0 301-180 301-429 0-245-55-427-290-427-236 0-299 181-299 427 0 243 61 429 288 429" id="u"/><g id="c"><use transform="matrix(0.015190972222222224,0,0,0.015190972222222224,0,0)" xlink:href="#r"/><use transform="matrix(0.015190972222222224,0,0,0.015190972222222224,18.669704861111114,0)" xlink:href="#s"/><use transform="matrix(0.015190972222222224,0,0,0.015190972222222224,37.33940972222223,0)" xlink:href="#q"/><use transform="matrix(0.015190972222222224,0,0,0.015190972222222224,56.00911458333334,0)" xlink:href="#t"/><use transform="matrix(0.015190972222222224,0,0,0.015190972222222224,74.67881944444446,0)" xlink:href="#u"/><use transform="matrix(0.015190972222222224,0,0,0.015190972222222224,93.34852430555557,0)" xlink:href="#i"/><use transform="matrix(0.015190972222222224,0,0,0.015190972222222224,112.01822916666669,0)" xlink:href="#j"/><use transform="matrix(0.015190972222222224,0,0,0.015190972222222224,130.6879340277778,0)" xlink:href="#k"/><use transform="matrix(0.015190972222222224,0,0,0.015190972222222224,149.3576388888889,0)" xlink:href="#k"/><use transform="matrix(0.015190972222222224,0,0,0.015190972222222224,168.02734375000003,0)" xlink:href="#l"/><use transform="matrix(0.015190972222222224,0,0,0.015190972222222224,186.69704861111114,0)" xlink:href="#m"/><use transform="matrix(0.015190972222222224,0,0,0.015190972222222224,205.36675347222226,0)" xlink:href="#j"/></g><path d="M713 0H515L10-1349h201C345-955 498-579 615-168c116-411 269-787 402-1181h201" id="v"/><g id="d"><use transform="matrix(0.015190972222222224,0,0,0.015190972222222224,0,0)" xlink:href="#v"/><use transform="matrix(0.015190972222222224,0,0,0.015190972222222224,18.669704861111114,0)" xlink:href="#t"/><use transform="matrix(0.015190972222222224,0,0,0.015190972222222224,37.33940972222223,0)" xlink:href="#q"/><use transform="matrix(0.015190972222222224,0,0,0.015190972222222224,56.00911458333334,0)" xlink:href="#j"/><use transform="matrix(0.015190972222222224,0,0,0.015190972222222224,74.67881944444446,0)" xlink:href="#u"/><use transform="matrix(0.015190972222222224,0,0,0.015190972222222224,93.34852430555557,0)" xlink:href="#i"/><use transform="matrix(0.015190972222222224,0,0,0.015190972222222224,112.01822916666669,0)" xlink:href="#j"/><use transform="matrix(0.015190972222222224,0,0,0.015190972222222224,130.6879340277778,0)" xlink:href="#k"/><use transform="matrix(0.015190972222222224,0,0,0.015190972222222224,149.3576388888889,0)" xlink:href="#k"/><use transform="matrix(0.015190972222222224,0,0,0.015190972222222224,168.02734375000003,0)" xlink:href="#l"/><use transform="matrix(0.015190972222222224,0,0,0.015190972222222224,186.69704861111114,0)" xlink:href="#m"/><use transform="matrix(0.015190972222222224,0,0,0.015190972222222224,205.36675347222226,0)" xlink:href="#j"/></g><path d="M932 0L611-444 288 0H94l415-556-397-526h199l300 421 298-421h201L713-558 1133 0H932" id="w"/><path d="M682 16c-209 0-323-80-324-285v-671H190v-142h170l58-282h120v282h432v142H538v652c2 114 60 155 182 155 106 0 209-16 297-34v137C921-4 806 16 682 16" id="x"/><g id="e"><use transform="matrix(0.015190972222222224,0,0,0.015190972222222224,0,0)" xlink:href="#n"/><use transform="matrix(0.015190972222222224,0,0,0.015190972222222224,18.669704861111114,0)" xlink:href="#j"/><use transform="matrix(0.015190972222222224,0,0,0.015190972222222224,37.33940972222223,0)" xlink:href="#w"/><use transform="matrix(0.015190972222222224,0,0,0.015190972222222224,56.00911458333334,0)" xlink:href="#x"/><use transform="matrix(0.015190972222222224,0,0,0.015190972222222224,74.67881944444446,0)" xlink:href="#i"/><use transform="matrix(0.015190972222222224,0,0,0.015190972222222224,93.34852430555557,0)" xlink:href="#j"/><use transform="matrix(0.015190972222222224,0,0,0.015190972222222224,112.01822916666669,0)" xlink:href="#k"/><use transform="matrix(0.015190972222222224,0,0,0.015190972222222224,130.6879340277778,0)" xlink:href="#k"/><use transform="matrix(0.015190972222222224,0,0,0.015190972222222224,149.3576388888889,0)" xlink:href="#l"/><use transform="matrix(0.015190972222222224,0,0,0.015190972222222224,168.02734375000003,0)" xlink:href="#m"/><use transform="matrix(0.015190972222222224,0,0,0.015190972222222224,186.69704861111114,0)" xlink:href="#j"/></g><path d="M202-1349h823v156H709v1037h316V0H202v-156h316v-1037H202v-156" id="y"/><path d="M904-1102c199 0 220 177 220 381V0H956v-686c-3-114 0-215-60-264-70-33-125-4-158 71-26 56-39 140-39 252V0H531v-686c-3-114-1-215-61-264-78-41-136 24-157 84-24 69-39 159-39 259V0H105c-3-360 6-732-6-1082h149c6 50 3 123 8 175 36-100 83-195 216-195 135 0 166 79 196 196 42-105 93-196 236-196" id="z"/><g id="f"><use transform="matrix(0.015190972222222224,0,0,0.015190972222222224,0,0)" xlink:href="#y"/><use transform="matrix(0.015190972222222224,0,0,0.015190972222222224,18.669704861111114,0)" xlink:href="#z"/><use transform="matrix(0.015190972222222224,0,0,0.015190972222222224,37.33940972222223,0)" xlink:href="#l"/><use transform="matrix(0.015190972222222224,0,0,0.015190972222222224,56.00911458333334,0)" xlink:href="#m"/><use transform="matrix(0.015190972222222224,0,0,0.015190972222222224,74.67881944444446,0)" xlink:href="#j"/><use transform="matrix(0.015190972222222224,0,0,0.015190972222222224,93.34852430555557,0)" xlink:href="#i"/><use transform="matrix(0.015190972222222224,0,0,0.015190972222222224,112.01822916666669,0)" xlink:href="#j"/><use transform="matrix(0.015190972222222224,0,0,0.015190972222222224,130.6879340277778,0)" xlink:href="#k"/><use transform="matrix(0.015190972222222224,0,0,0.015190972222222224,149.3576388888889,0)" xlink:href="#k"/><use transform="matrix(0.015190972222222224,0,0,0.015190972222222224,168.02734375000003,0)" xlink:href="#l"/><use transform="matrix(0.015190972222222224,0,0,0.015190972222222224,186.69704861111114,0)" xlink:href="#m"/><use transform="matrix(0.015190972222222224,0,0,0.015190972222222224,205.36675347222226,0)" xlink:href="#j"/></g><path d="M237 0v-1349h191v1193h672V0H237" id="A"/><path d="M631 20c-350 0-501-215-501-562 0-355 162-560 502-560 250 0 399 118 446 323l-192 14c-23-124-109-196-262-196-242 0-305 171-305 415 1 245 61 427 304 427 151 0 248-77 267-215l190 12C1039-107 883 20 631 20" id="B"/><path d="M706-1102c241 0 344 136 343 381V0H868v-695c1-168-57-273-220-268-190 6-283 138-283 336V0H185c-3-360 6-732-6-1082h170c4 54 7 126 8 185h3c63-121 164-204 346-205" id="C"/><g id="g"><use transform="matrix(0.015190972222222224,0,0,0.015190972222222224,0,0)" xlink:href="#A"/><use transform="matrix(0.015190972222222224,0,0,0.015190972222222224,18.669704861111114,0)" xlink:href="#u"/><use transform="matrix(0.015190972222222224,0,0,0.015190972222222224,37.33940972222223,0)" xlink:href="#B"/><use transform="matrix(0.015190972222222224,0,0,0.015190972222222224,56.00911458333334,0)" xlink:href="#l"/><use transform="matrix(0.015190972222222224,0,0,0.015190972222222224,74.67881944444446,0)" xlink:href="#x"/><use transform="matrix(0.015190972222222224,0,0,0.015190972222222224,93.34852430555557,0)" xlink:href="#t"/><use transform="matrix(0.015190972222222224,0,0,0.015190972222222224,112.01822916666669,0)" xlink:href="#u"/><use transform="matrix(0.015190972222222224,0,0,0.015190972222222224,130.6879340277778,0)" xlink:href="#C"/><use transform="matrix(0.015190972222222224,0,0,0.015190972222222224,149.3576388888889,0)" xlink:href="#i"/><use transform="matrix(0.015190972222222224,0,0,0.015190972222222224,168.02734375000003,0)" xlink:href="#j"/><use transform="matrix(0.015190972222222224,0,0,0.015190972222222224,186.69704861111114,0)" xlink:href="#k"/><use transform="matrix(0.015190972222222224,0,0,0.015190972222222224,205.36675347222226,0)" xlink:href="#k"/><use transform="matrix(0.015190972222222224,0,0,0.015190972222222224,224.03645833333337,0)" xlink:href="#l"/><use transform="matrix(0.015190972222222224,0,0,0.015190972222222224,242.70616319444449,0)" xlink:href="#m"/><use transform="matrix(0.015190972222222224,0,0,0.015190972222222224,261.3758680555556,0)" xlink:href="#j"/></g><path d="M1576 0v-216h193V0h-193zM927 0v-216h193V0H927zM279 0v-216h193V0H279" id="D"/><use transform="matrix(0.015190972222222224,0,0,0.015190972222222224,0,0)" xlink:href="#D" id="h"/></defs></g></svg>