<svg width="18" height="18" viewBox="0 0 18 18" fill="none" xmlns="http://www.w3.org/2000/svg">
<path d="M16.5 2.98195C14.3689 1.06135 11.1311 1.06135 9 2.98195C6.86887 1.06135 3.63113 1.06135 1.5 2.98195V16.5001C1.95648 16.0887 2.46373 15.7654 3 15.5303C4.96738 14.6676 7.32535 14.9909 9 16.5001C10.6747 14.9909 13.0326 14.6676 15 15.5303C15.5363 15.7654 16.0435 16.0887 16.5 16.5001V2.98195ZM8.25 4.3253V12.7501H9.75V4.3253L10.0042 4.09622C11.4071 2.83193 13.4649 2.70427 15 3.71324V13.9243C13.0221 13.2648 10.8138 13.4998 9 14.6295C7.18623 13.4998 4.97794 13.2648 3 13.9243V3.71324C4.53514 2.70427 6.59293 2.83193 7.99581 4.09622L8.25 4.3253Z" fill="#15C5CE"/>
</svg>
