<svg width="16" height="16" viewBox="0 0 16 16" fill="none" xmlns="http://www.w3.org/2000/svg">
<path d="M14.6668 2.65015C12.7724 0.942952 9.89444 0.942952 8.0001 2.65015C6.10576 0.942952 3.22777 0.942952 1.33344 2.65015V14.6663C1.73919 14.3006 2.19008 14.0133 2.66677 13.8042C4.41555 13.0374 6.51152 13.3248 8.0001 14.6663C9.48868 13.3248 11.5847 13.0374 13.3334 13.8042C13.8101 14.0133 14.261 14.3006 14.6668 14.6663V2.65015ZM7.33344 3.84424V11.333H8.66677V3.84424L8.89272 3.64061C10.1397 2.5168 11.9689 2.40332 13.3334 3.30018V12.3767C11.5753 11.7905 9.61234 11.9994 8.0001 13.0035C6.38786 11.9994 4.42494 11.7905 2.66677 12.3767V3.30018C4.03134 2.40332 5.86048 2.5168 7.10749 3.64061L7.33344 3.84424Z" fill="#15C5CE"/>
</svg>
