<svg width="160" height="160" viewBox="0 0 160 160" fill="none" xmlns="http://www.w3.org/2000/svg">
<path fill-rule="evenodd" clip-rule="evenodd" d="M50.4865 56.5621C50.4865 58.6518 48.7924 60.3458 46.7027 60.3458C44.613 60.3458 42.9189 58.6518 42.9189 56.5621C42.9189 54.4723 44.613 52.7783 46.7027 52.7783C48.7924 52.7783 50.4865 54.4723 50.4865 56.5621ZM43.6757 56.5621C43.6757 58.2339 45.0309 59.5891 46.7027 59.5891C48.3745 59.5891 49.7298 58.2339 49.7298 56.5621C49.7298 54.8903 48.3745 53.5351 46.7027 53.5351C45.0309 53.5351 43.6757 54.8903 43.6757 56.5621Z" fill="#B9BEC1"/>
<path fill-rule="evenodd" clip-rule="evenodd" d="M62.5946 60.3458C64.6843 60.3458 66.3784 58.6518 66.3784 56.5621C66.3784 54.4723 64.6843 52.7783 62.5946 52.7783C60.5049 52.7783 58.8108 54.4723 58.8108 56.5621C58.8108 58.6518 60.5049 60.3458 62.5946 60.3458ZM62.5946 59.5891C60.9228 59.5891 59.5676 58.2339 59.5676 56.5621C59.5676 54.8903 60.9228 53.5351 62.5946 53.5351C64.2664 53.5351 65.6216 54.8903 65.6216 56.5621C65.6216 58.2339 64.2664 59.5891 62.5946 59.5891Z" fill="#B9BEC1"/>
<path fill-rule="evenodd" clip-rule="evenodd" d="M82.2703 56.5621C82.2703 58.6518 80.5762 60.3458 78.4865 60.3458C76.3968 60.3458 74.7027 58.6518 74.7027 56.5621C74.7027 54.4723 76.3968 52.7783 78.4865 52.7783C80.5762 52.7783 82.2703 54.4723 82.2703 56.5621ZM75.4595 56.5621C75.4595 58.2339 76.8147 59.5891 78.4865 59.5891C80.1583 59.5891 81.5135 58.2339 81.5135 56.5621C81.5135 54.8903 80.1583 53.5351 78.4865 53.5351C76.8147 53.5351 75.4595 54.8903 75.4595 56.5621Z" fill="#B9BEC1"/>
<path fill-rule="evenodd" clip-rule="evenodd" d="M87.5676 81.535C89.6573 81.535 91.3513 79.841 91.3513 77.7513C91.3513 75.6615 89.6573 73.9675 87.5676 73.9675C85.4778 73.9675 83.7838 75.6615 83.7838 77.7513C83.7838 79.841 85.4778 81.535 87.5676 81.535ZM87.5676 80.7783C85.8958 80.7783 84.5405 79.423 84.5405 77.7512C84.5405 76.0795 85.8958 74.7242 87.5676 74.7242C89.2393 74.7242 90.5946 76.0795 90.5946 77.7512C90.5946 79.423 89.2393 80.7783 87.5676 80.7783Z" fill="#B9BEC1"/>
<path fill-rule="evenodd" clip-rule="evenodd" d="M108 77.7513C108 79.841 106.306 81.535 104.216 81.535C102.126 81.535 100.432 79.841 100.432 77.7513C100.432 75.6615 102.126 73.9675 104.216 73.9675C106.306 73.9675 108 75.6615 108 77.7513ZM101.189 77.7512C101.189 79.423 102.544 80.7783 104.216 80.7783C105.888 80.7783 107.243 79.423 107.243 77.7512C107.243 76.0795 105.888 74.7242 104.216 74.7242C102.544 74.7242 101.189 76.0795 101.189 77.7512Z" fill="#B9BEC1"/>
<path fill-rule="evenodd" clip-rule="evenodd" d="M120.865 81.535C122.955 81.535 124.649 79.841 124.649 77.7513C124.649 75.6615 122.955 73.9675 120.865 73.9675C118.775 73.9675 117.081 75.6615 117.081 77.7513C117.081 79.841 118.775 81.535 120.865 81.535ZM120.865 80.7783C119.193 80.7783 117.838 79.423 117.838 77.7512C117.838 76.0795 119.193 74.7242 120.865 74.7242C122.537 74.7242 123.892 76.0795 123.892 77.7512C123.892 79.423 122.537 80.7783 120.865 80.7783Z" fill="#B9BEC1"/>
<path fill-rule="evenodd" clip-rule="evenodd" d="M46.4762 79.2648H37.2663L29.9393 86.6573C29.7027 86.9013 29.2892 86.7338 29.2892 86.3939V81.8578L29.2892 81.8534V68.975H29.2973V44.8323C29.2973 41.2798 32.1772 38.3999 35.7297 38.3999H88.7027C92.2552 38.3999 95.1351 41.2798 95.1351 44.8323V58.9852C98.0189 58.3928 101.068 58.0756 104.216 58.0756C121.745 58.0756 135.998 67.8627 136 80.0185L136 80.0216C136 84.5577 135.552 87.7851 134.172 90.9415C132.415 94.9584 129.245 98.2539 124.269 100.831V111.637C124.269 111.918 123.974 112.101 123.722 111.976L110.446 105.36C108.521 105.629 106.585 105.74 104.226 105.74C97.2002 105.74 90.5202 104.164 85.043 101.3C83.3524 112.808 73.4376 121.643 61.4595 121.643C56.1465 121.643 51.0981 119.9 46.9716 116.737C46.0261 116.979 45.0481 117.103 44.0541 117.103C37.5759 117.103 32.3243 111.851 32.3243 105.373C32.3243 101.324 34.3926 97.6308 37.7326 95.4906C38.3654 88.9225 41.6488 83.1673 46.4762 79.2648ZM30.046 69.2075L30.046 80.9195L36.8193 74.0935L36.8207 74.0949C36.8901 74.0167 36.9912 73.9675 37.1039 73.9675H73.6529C76.5675 66.913 84.4296 61.3806 94.3784 59.1479V44.8323C94.3784 41.6977 91.8373 39.1567 88.7027 39.1567H35.7297C32.5951 39.1567 30.0541 41.6977 30.0541 44.8323V69.1293C30.0541 69.1561 30.0513 69.1822 30.046 69.2075ZM61.4387 74.7242H61.4803C65.5759 74.7278 69.4218 75.7982 72.7551 77.6724C72.8081 77.7316 72.8801 77.7747 72.9638 77.7911C79.8827 81.7768 84.5405 89.2471 84.5405 97.8053C84.5405 110.553 74.2068 120.886 61.4595 120.886C56.2524 120.886 51.3096 119.158 47.2878 116.025L47.1382 115.908L46.9554 115.958C46.0181 116.215 45.045 116.346 44.0541 116.346C37.9939 116.346 33.0811 111.433 33.0811 105.373C33.0811 101.524 35.0778 98.0203 38.2912 96.0332L38.4524 95.9335L38.4691 95.7447C39.517 83.8971 49.4677 74.7348 61.4387 74.7242ZM55.484 74.7242H37.2596L30.046 82.009V85.46L36.8025 78.6577C36.8716 78.5667 36.9809 78.508 37.1039 78.508H47.4637C49.8463 76.7784 52.559 75.4802 55.484 74.7242ZM85.1468 100.499C90.5587 103.388 97.2137 104.983 104.226 104.983C106.599 104.983 108.531 104.87 110.456 104.595C110.537 104.583 110.616 104.598 110.683 104.633L123.513 111.026V108.103L110.436 101.588C108.511 101.856 106.575 101.968 104.216 101.968C97.3026 101.968 90.7242 100.441 85.2969 97.6636C85.2972 97.7108 85.2973 97.758 85.2973 97.8053C85.2973 98.7159 85.2462 99.6147 85.1468 100.499ZM85.2765 96.8001C90.663 99.6423 97.2639 101.211 104.216 101.211C106.589 101.211 108.521 101.097 110.446 100.822C110.526 100.81 110.605 100.825 110.672 100.86L123.503 107.253V96.835C123.5 96.6992 123.571 96.5666 123.698 96.4964C130.959 92.4864 135.243 86.4863 135.243 80.0215C135.243 68.3559 121.376 58.8323 104.216 58.8323C88.5869 58.8323 75.4932 66.7781 73.4615 77.2049C80.2696 81.1799 84.9294 88.4332 85.2765 96.8001ZM72.7684 76.8155C72.9183 76.1061 73.1168 75.4085 73.3614 74.7242H67.4413C69.3164 75.2088 71.102 75.9159 72.7684 76.8155ZM133.478 90.6382C131.832 94.402 128.889 97.5105 124.26 99.9817V97.05C129.415 94.1569 133.105 90.2585 134.856 85.8787C134.58 87.5882 134.14 89.1249 133.478 90.6382Z" fill="#B9BEC1"/>
<path fill-rule="evenodd" clip-rule="evenodd" d="M34.5946 116.346C34.5946 119.271 32.2229 121.643 29.2973 121.643C26.3717 121.643 24 119.271 24 116.346C24 113.42 26.3717 111.049 29.2973 111.049C32.2229 111.049 34.5946 113.42 34.5946 116.346ZM24.7568 116.346C24.7568 118.854 26.7896 120.886 29.2973 120.886C31.805 120.886 33.8378 118.854 33.8378 116.346C33.8378 113.838 31.805 111.805 29.2973 111.805C26.7896 111.805 24.7568 113.838 24.7568 116.346Z" fill="#B9BEC1"/>
<path d="M64.7346 100.992C63.8388 102.078 63.4766 102.994 63.5243 103.776C63.5993 105.007 62.6625 106.065 61.4318 106.14C60.201 106.215 59.1425 105.278 59.0675 104.048C58.9441 102.025 59.7262 100.047 61.2899 98.151C61.3666 98.0581 61.4459 97.9643 61.5284 97.8689C61.7763 97.5822 62.0401 97.2951 62.3851 96.9317C62.422 96.8929 62.5247 96.7855 62.6475 96.6569C62.8555 96.4394 63.1213 96.1613 63.2237 96.0529C65.0582 94.111 65.761 92.8867 65.761 91.2589C65.761 88.5874 63.5953 86.4217 60.9238 86.4217C58.2523 86.4217 56.0866 88.5874 56.0866 91.2589C56.0866 92.4919 55.087 93.4914 53.854 93.4914C52.621 93.4914 51.6215 92.4919 51.6215 91.2589C51.6215 86.1213 55.7863 81.9565 60.9238 81.9565C66.0613 81.9565 70.2261 86.1213 70.2261 91.2589C70.2261 94.3169 69.0182 96.4213 66.4695 99.1192C66.3551 99.2403 66.069 99.5396 65.8586 99.7597C65.7454 99.878 65.6541 99.9735 65.6231 100.006C65.3216 100.324 65.1005 100.564 64.9057 100.79C64.8454 100.859 64.7885 100.927 64.7346 100.992Z" fill="#15C5CE"/>
<path d="M61.296 113.957C62.94 113.957 64.2727 112.624 64.2727 110.98C64.2727 109.336 62.94 108.003 61.296 108.003C59.652 108.003 58.3193 109.336 58.3193 110.98C58.3193 112.624 59.652 113.957 61.296 113.957Z" fill="#15C5CE"/>
</svg>
