<svg width="18" height="18" viewBox="0 0 18 18" fill="none" xmlns="http://www.w3.org/2000/svg">
<path d="M12.4091 6.95455V8.31818H5.59091V6.95455H12.4091Z" fill="#15C5CE"/>
<path d="M12.4091 11.0455V9.68182H5.59091V11.0455H12.4091Z" fill="#15C5CE"/>
<path d="M3.49028 14.0885L2.25 16.5H9L9.20993 16.4972C13.255 16.386 16.5 13.0719 16.5 9C16.5 4.85782 13.1421 1.5 9 1.5C4.85786 1.5 1.5 4.85782 1.5 9C1.5 10.9639 2.25487 12.7515 3.49028 14.0885ZM9.18138 15.1337L8.99067 15.1364H4.48481L5.1393 13.8639L4.49182 13.1632C3.48003 12.0682 2.86364 10.6077 2.86364 9C2.86364 5.61105 5.61098 2.86364 9 2.86364C12.389 2.86364 15.1364 5.61105 15.1364 9C15.1364 12.3284 12.4861 15.0382 9.18138 15.1337Z" fill="#15C5CE"/>
</svg>
