<?xml version="1.0" encoding="UTF-8"?>
<svg viewBox="0 0 36 36" version="1.1" xmlns="http://www.w3.org/2000/svg" xmlns:xlink="http://www.w3.org/1999/xlink">
    <defs></defs>
    <g id="Page-1" stroke="none" stroke-width="1" fill="none" fill-rule="evenodd">
        <g fill="#2BA245" fill-rule="nonzero">
            <g id="1">
                <path d="M18,6 C11.372549,6 6,11.372549 6,18 C6,24.627451 11.372549,30 18,30 C24.627451,30 30,24.627451 30,18 C30,11.372549 24.627451,6 18,6 Z M24.4601542,16.9137931 C23.9203085,17.7988506 23.0719794,18.4827586 22.0308483,18.8045977 C21.9922879,18.8045977 21.9922879,18.8045977 21.9537275,18.8448276 C21.7994859,18.8850575 21.6452442,18.9252874 21.4524422,18.9252874 C20.7197943,18.9252874 20.3341902,18.4022989 20.5269923,17.7988506 C20.6812339,17.3563218 21.1053985,16.954023 21.6066838,16.7931034 C22.4164524,16.4712644 22.9562982,15.7873563 22.9562982,14.9827586 C22.9562982,13.8965517 21.9537275,13.0114943 20.7197943,13.0114943 C19.4858612,13.0114943 18.4832905,13.8965517 18.4832905,14.9827586 L18.4832905,20.9770115 C18.4832905,22.4252874 17.6735219,23.6724138 16.4781491,24.3965517 C15.8226221,24.7988506 15.0514139,25 14.2416452,25 C11.8894602,25 10,23.1896552 10,20.9770115 C10,20.2528736 10.1928021,19.6091954 10.5398458,19.0057471 C11.0796915,18.1206897 11.9280206,17.4367816 12.9691517,17.1149425 C12.9691517,17.1149425 12.9691517,17.1149425 12.9691517,17.1149425 C13.1619537,17.0747126 13.3161954,17.0344828 13.5089974,17.0344828 C14.2416452,17.0344828 14.6272494,17.5574713 14.4344473,18.1609195 C14.2802057,18.6034483 13.8946015,18.9655172 13.4318766,19.1666667 C13.3933162,19.1666667 13.3161954,19.2068966 13.277635,19.2471264 C12.5449871,19.5689655 12.0437018,20.2126437 12.0437018,21.0172414 C12.0437018,22.1034483 13.0462725,22.9885057 14.2802057,22.9885057 C15.5141388,22.9885057 16.5167095,22.1034483 16.5167095,21.0172414 L16.5167095,15.0229885 C16.5167095,13.5747126 17.3264781,12.3275862 18.5218509,11.6034483 C19.1773779,11.2011494 19.9485861,11 20.7583548,11 C23.1105398,11 25,12.8103448 25,15.0229885 C25,15.6666667 24.8071979,16.3103448 24.4601542,16.9137931 Z" id="Icon"></path>
            </g>
        </g>
    </g>
</svg>
