<svg width="20" height="20" viewBox="0 0 20 20" fill="none" xmlns="http://www.w3.org/2000/svg">
<path fill-rule="evenodd" clip-rule="evenodd" d="M4.33058 4.33058C6.77136 1.88981 10.7286 1.88981 13.1694 4.33058C15.4102 6.57137 15.5938 10.0903 13.7202 12.5406L16.705 15.5264C17.0304 15.8519 17.0304 16.3795 16.705 16.705C16.3795 17.0304 15.8519 17.0304 15.5264 16.705L12.5412 13.7197C10.091 15.5938 6.57158 15.4104 4.33058 13.1694C1.88981 10.7286 1.88981 6.77136 4.33058 4.33058ZM5.50909 5.50909C3.71919 7.299 3.71919 10.201 5.50909 11.9909C7.299 13.7808 10.201 13.7808 11.9909 11.9909C13.7808 10.201 13.7808 7.299 11.9909 5.50909C10.201 3.71919 7.299 3.71919 5.50909 5.50909Z" fill="#868C92"/>
</svg>
