<svg width="120" height="120" viewBox="0 0 120 120" fill="none" xmlns="http://www.w3.org/2000/svg">
<rect opacity="0.01" x="6" y="6" width="108" height="108" fill="#D8D8D8"/>
<mask id="mask0_27_1806" style="mask-type:alpha" maskUnits="userSpaceOnUse" x="6" y="6" width="108" height="108">
<rect x="6" y="6" width="108" height="108" fill="white"/>
</mask>
<g mask="url(#mask0_27_1806)">
<path fill-rule="evenodd" clip-rule="evenodd" d="M27.457 76.4662V32.2411C27.457 29.3224 29.823 26.9563 32.7417 26.9563H71.7338C69.2503 28.0174 67.5099 30.4823 67.5099 33.3536V72.294V74.5192V84.8106C67.5099 87.5757 65.2684 89.8172 62.5033 89.8172C59.7382 89.8172 57.4967 87.5757 57.4967 84.8106V76.7444C57.4967 76.5908 57.3722 76.4662 57.2185 76.4662H27.457ZM68.0662 33.3536L68.0662 72.294L68.0662 74.5192L68.0662 84.8106C68.0662 87.8829 65.5756 90.3735 62.5033 90.3735C62.41 90.3735 62.3173 90.3712 62.2252 90.3667V90.3735H24.9536C21.1133 90.3735 18 87.2603 18 83.4199V76.7444C18 76.5908 18.1245 76.4662 18.2781 76.4662H26.9007V32.2411C26.9007 29.0151 29.5158 26.4 32.7417 26.4H74.4636C78.304 26.4 81.4172 29.5133 81.4172 33.3536V48.6091C82.024 48.2223 82.6748 47.892 83.3666 47.6265L83.3745 47.6468C83.8841 47.3407 84.425 47.0757 84.9955 46.8567C91.0273 44.5413 98.0466 48.2579 100.686 55.1344C103.026 61.2296 101.147 67.7824 96.4897 70.8052C95.7913 71.4671 95.0145 72.0289 94.171 72.4795L95.8392 78.7052L93.6898 79.2811L93.6556 79.1534V83.9762C93.6556 87.5093 90.7914 90.3735 87.2583 90.3735C83.7251 90.3735 80.8609 87.5093 80.8609 83.9762V70.4303H80.9148C79.22 68.9161 77.8207 66.9329 76.9212 64.5897C74.6347 58.6331 76.4216 52.2205 80.8609 48.9884V33.3536C80.8609 29.8205 77.9967 26.9563 74.4636 26.9563H74.4627C70.93 26.9568 68.0662 29.8208 68.0662 33.3536ZM77.4406 64.3903C75.264 58.7202 76.9223 52.6402 81.067 49.5284C77.9224 52.9297 76.9058 58.3804 78.8739 63.5074C81.4033 70.0969 87.9544 73.7848 93.8045 72.0438C93.4709 72.217 93.1265 72.372 92.772 72.5081C86.9004 74.762 80.0307 71.1378 77.4406 64.3903ZM96.1991 70.313L96.2092 70.3234C100.624 67.4394 102.411 61.1809 100.167 55.3338C97.6318 48.7295 90.9229 45.1772 85.1949 47.376C79.4668 49.5748 76.8581 56.7038 79.3932 63.308C81.9284 69.9123 88.6373 73.4646 94.3653 71.2658C94.9976 71.023 95.592 70.7202 96.1456 70.3646L96.1991 70.313ZM81.4172 70.8584C84.4937 73.3578 88.4218 74.3758 92.093 73.3216L93.1271 77.181H93.0993V83.9762C93.0993 87.2021 90.4842 89.8172 87.2583 89.8172C84.0323 89.8172 81.4172 87.2021 81.4172 83.9762V70.8584ZM56.9404 84.8106C56.9404 87.0125 58.2197 88.9156 60.0756 89.8172H24.9536C21.4205 89.8172 18.5563 86.953 18.5563 83.4199V77.0225H56.9404V84.8106ZM94.0832 78.5998L92.6434 73.2264L93.7181 72.9385L95.1579 78.3118L94.0832 78.5998ZM93.7278 69.1072C98.4677 67.2877 100.643 61.5098 98.6089 56.21C96.5745 50.9101 91.0915 48.072 86.3516 49.8915C81.6118 51.711 79.4361 57.4888 81.4706 62.7887C83.505 68.0886 88.988 70.9267 93.7278 69.1072ZM93.5285 68.5879C89.09 70.2917 83.9192 67.6152 81.9899 62.5894C80.0607 57.5636 82.1125 52.1147 86.551 50.4109C90.9895 48.7071 96.1603 51.3835 98.0895 56.4093C100.019 61.4351 97.967 66.8841 93.5285 68.5879Z" fill="#B9BEC1"/>
<rect x="93.0875" y="78.5542" width="3.33774" height="15.5762" rx="1.66887" transform="rotate(-15 93.0875 78.5542)" fill="#15C5CE"/>
</g>
</svg>
