<svg width="14" height="14" viewBox="0 0 14 14" fill="none" xmlns="http://www.w3.org/2000/svg">
<path d="M6.41668 2.91667V7.58333H9.91668V6.41667H7.58334V2.91667H6.41668Z" fill="#868C92"/>
<path d="M13.4167 7C13.4167 10.5438 10.5438 13.4167 7.00001 13.4167C3.45618 13.4167 0.583344 10.5438 0.583344 7C0.583344 3.45617 3.45618 0.583334 7.00001 0.583334C10.5438 0.583334 13.4167 3.45617 13.4167 7ZM12.25 7C12.25 4.10051 9.8995 1.75 7.00001 1.75C4.10051 1.75 1.75001 4.10051 1.75001 7C1.75001 9.8995 4.10051 12.25 7.00001 12.25C9.8995 12.25 12.25 9.8995 12.25 7Z" fill="#868C92"/>
</svg>
