<?xml version="1.0" encoding="UTF-8"?>
<svg viewBox="0 0 288 288" version="1.1" xmlns="http://www.w3.org/2000/svg" xmlns:xlink="http://www.w3.org/1999/xlink">
    <g id="Page-1" stroke="none" stroke-width="1" fill="none" fill-rule="evenodd">
        <g id="electron" transform="translate(29.000000, 19.000000)" fill="#47848F" fill-rule="nonzero">
            <path d="M81.4960781,53.733847 C48.7734844,47.7834394 22.9014844,54.0113224 12.5895,71.8427255 C4.89521484,85.1489359 7.09422656,102.791151 17.9241562,121.648673 C18.5104059,122.70678 19.6222402,123.367401 20.8333502,123.377235 C22.0444601,123.38707 23.1669098,122.744591 23.7703198,121.696144 C24.3737299,120.647697 24.3644652,119.355976 23.7460781,118.316264 C13.9908398,101.328999 12.0923086,86.102983 18.4014961,75.1931518 C26.9674453,60.3806459 50.0448867,54.825731 80.2932539,60.3256913 C81.4797199,60.5566679 82.6989246,60.1327148 83.4849641,59.2158405 C84.2710036,58.2989662 84.5023942,57.030875 84.0907128,55.8961522 C83.6790315,54.7614294 82.6879043,53.9354482 81.4960781,53.733847 Z M129.888773,23.3881197 C127.218738,28.5439384 121.829039,32.0682373 115.614598,32.0682373 C106.744559,32.0682373 99.5546836,24.8890098 99.5546836,16.0341187 C99.5546836,7.17832664 106.746363,0 115.614598,0 C124.484637,0 131.674512,7.17832664 131.674512,16.0341187 C131.674512,16.2656485 131.669098,16.4962775 131.660074,16.7251047 C158.244023,30.4520328 176.716805,77.2625062 176.716805,131.342297 C176.716805,153.58538 173.601914,174.92937 167.802551,193.431939 C167.463573,194.597279 166.519956,195.488534 165.335749,195.76186 C164.151541,196.035186 162.911865,195.647853 162.094988,194.749295 C161.27811,193.850738 161.01173,192.581423 161.398617,191.431053 C166.989539,173.591542 170.006074,152.920519 170.006074,131.342297 C170.006074,80.4201411 153.051938,36.601538 129.889676,23.3881197 L129.888773,23.3881197 Z M14.8597969,174.160006 C15.2591453,174.130266 15.6594564,174.115241 16.0599141,174.114961 C24.9299531,174.114961 32.1198281,181.29509 32.1198281,190.149981 C32.1198281,199.005773 24.9290508,206.183199 16.0599141,206.183199 C7.189875,206.183199 0,199.004872 0,190.149981 C0,184.121196 3.33235547,178.870783 8.25734766,176.132064 C5.83906641,146.163811 37.3877109,105.99293 85.0648477,78.5111459 C104.867684,67.0959128 125.488043,58.9932685 144.860461,54.8491542 C146.672713,54.4615626 148.456545,55.6141186 148.84476,57.42346 C149.232975,59.2328015 148.078565,61.0137676 146.266313,61.4013593 C127.59682,65.3950242 107.63066,73.2400127 88.4197617,84.3138067 C43.5200391,110.194701 13.8320273,147.497135 14.8606992,174.160006 L14.8597969,174.160006 Z M200.977219,198.075149 C199.599061,195.660748 198.876204,192.928926 198.880172,190.149981 C198.880172,181.294189 206.070949,174.115862 214.940086,174.115862 C223.810125,174.115862 231,181.294189 231,190.149981 C231,199.005773 223.810125,206.183199 214.940086,206.183199 C211.578975,206.188747 208.301612,205.136505 205.573758,203.176013 C179.954414,218.223652 131.017605,210.548933 84.9664922,184.003178 C65.3621719,172.70326 48.1725234,159.087142 34.941457,144.57103 C33.7294097,143.19857 33.8443916,141.109099 35.1997399,139.877467 C36.5550882,138.645835 38.6494761,138.727608 39.9043477,140.061153 C52.6580742,154.053845 69.3036094,167.238434 88.3214062,178.200517 C131.782793,203.252589 177.55057,210.708391 200.976316,198.075149 L200.977219,198.075149 Z M199.925086,140.495384 C198.717628,141.867261 196.632134,142.020961 195.236,140.840966 C193.839865,139.660971 193.647457,137.582018 194.803383,136.166586 C214.606219,112.809998 221.278148,90.1434945 212.730246,75.3634208 C206.52573,64.6337684 192.735211,58.6788564 173.602816,58.4302095 C172.395956,58.4264716 171.284054,57.7760146 170.690818,56.7267049 C170.097582,55.6773952 170.114389,54.3908612 170.734835,53.357356 C171.355281,52.3238508 172.483796,51.7025684 173.690344,51.7302578 C194.963098,52.0068324 210.970676,58.9193952 218.542242,72.0129945 C228.83257,89.8074608 221.351238,115.224395 199.925086,140.495384 Z M65.4767695,199.539102 C64.8978051,197.810436 65.8092296,195.93682 67.5280327,195.322319 C69.2468358,194.707819 71.1423402,195.577911 71.7940781,197.28056 C82.149375,226.149721 98.495332,243.300048 115.614598,243.300048 C127.927078,243.300048 139.896668,234.494706 149.64198,218.309237 C150.59682,216.723296 152.658599,216.210444 154.247092,217.16375 C155.835585,218.117056 156.349262,220.175523 155.394422,221.761465 C144.550055,239.770344 130.644938,250 115.614598,250 C95.0059688,250 76.6784648,230.77131 65.4767695,199.540003 L65.4767695,199.539102 Z M224.288367,190.14908 C224.288367,184.994162 220.102395,180.814913 214.940086,180.814913 C209.775973,180.814913 205.59,184.994162 205.59,190.148179 C205.59,195.303998 209.776875,199.482346 214.939184,199.482346 C220.102395,199.482346 224.287465,195.303998 224.287465,190.14908 L224.288367,190.14908 Z M16.0590117,199.482346 C21.2222227,199.482346 25.407293,195.303998 25.407293,190.14908 C25.407293,184.994162 21.2222227,180.814913 16.0590117,180.814913 C10.8958008,180.814913 6.71073047,184.994162 6.71073047,190.148179 C6.71073047,195.303998 10.8958008,199.482346 16.0590117,199.482346 Z M115.614598,25.3664838 C120.777809,25.3664838 124.962879,21.1881356 124.962879,16.0332178 C124.962879,10.8783 120.777809,6.69995171 115.614598,6.69995171 C110.451387,6.69995171 106.266316,10.8783 106.266316,16.0332178 C106.266316,21.1881356 110.451387,25.3664838 115.614598,25.3664838 Z M118.067168,142.680954 C111.794977,144.034097 105.614824,140.053946 104.256797,133.790928 C102.904184,127.52791 106.888031,121.358585 113.161125,120.002739 C119.433316,118.649595 125.613469,122.628846 126.971496,128.891864 C128.326816,135.154882 124.340262,141.324207 118.067168,142.680053 L118.067168,142.680954 Z" id="Shape"></path>
        </g>
    </g>
</svg>
