<svg width="16" height="16" viewBox="0 0 16 16" fill="none" xmlns="http://www.w3.org/2000/svg">
<path d="M7.33335 3.99984V5.33317H8.66669V3.99984H7.33335Z" fill="#868C92"/>
<path d="M7.33335 5.99984V11.3332H8.66669V5.99984H7.33335Z" fill="#868C92"/>
<path d="M15.3334 7.99984C15.3334 12.0499 12.0501 15.3332 8.00002 15.3332C3.94993 15.3332 0.666687 12.0499 0.666687 7.99984C0.666687 3.94975 3.94993 0.666504 8.00002 0.666504C12.0501 0.666504 15.3334 3.94975 15.3334 7.99984ZM14 7.99984C14 4.68613 11.3137 1.99984 8.00002 1.99984C4.68631 1.99984 2.00002 4.68613 2.00002 7.99984C2.00002 11.3135 4.68631 13.9998 8.00002 13.9998C11.3137 13.9998 14 11.3135 14 7.99984Z" fill="#868C92"/>
</svg>
