<?xml version="1.0" encoding="UTF-8"?>
<svg viewBox="0 0 36 36" version="1.1" xmlns="http://www.w3.org/2000/svg" xmlns:xlink="http://www.w3.org/1999/xlink">
    <g id="Page-1" stroke="none" fill="none" fill-rule="evenodd">
        <g id="Group-2" transform="translate(3.000000, 5.000000)" fill="#FB7F02">
            <path d="M20.3175457,23.0321606 C24.1020247,19.1132179 23.4632992,12.3335309 18.8640403,7.89207822 C14.2647814,3.45062551 7.46693317,3.04889681 3.68245426,6.96783944 C-0.102024655,10.8867821 0.536700802,17.6664691 5.13595972,22.1079218 C9.73521864,26.5493745 16.5330668,26.9511032 20.3175457,23.0321606 Z M18.3783527,14.6704616 C17.0572854,16.3613506 14.3727377,16.4458553 12.3829061,14.8912285 C10.3930746,13.3366017 9.82561831,10.711353 11.1466856,9.02046401 C12.4677529,7.32957501 15.1523006,7.24507026 17.1421321,8.79969704 C19.1319637,10.3543238 19.69942,12.9795726 18.3783527,14.6704616 Z" id="Combined-Shape"></path>
            <ellipse id="Oval" transform="translate(25.500000, 5.500000) rotate(-17.000000) translate(-25.500000, -5.500000) " cx="25.5" cy="5.5" rx="3.25" ry="4.25"></ellipse>
        </g>
    </g>
</svg>